<svg width="24" height="24" viewBox="0 0 24 24" fill="none" xmlns="http://www.w3.org/2000/svg">
<path d="M8.48487 5.81041C8.48487 6.16348 8.1928 6.44954 7.83004 6.44954C7.4673 6.44954 7.17487 6.16348 7.17504 5.81041V4.63914C7.17504 4.28641 7.4673 4 7.83004 4C8.1928 4 8.48487 4.28641 8.48487 4.63914V5.81041Z" fill="#35578B"/>
<path d="M12.6552 5.81041C12.6552 6.16348 12.3617 6.44954 12.0004 6.44954C11.6376 6.44954 11.3443 6.16348 11.3443 5.81041V4.63914C11.3443 4.28641 11.6376 4 12.0004 4C12.3619 4 12.6552 4.28641 12.6552 4.63914V5.81041Z" fill="#35578B"/>
<path d="M16.1695 6.44954C16.5322 6.44954 16.8256 6.16348 16.8256 5.81041V4.63914C16.8256 4.28641 16.5322 4 16.1695 4C15.8081 4 15.5147 4.28641 15.5147 4.63914V5.81041C15.5148 6.16348 15.8081 6.44954 16.1695 6.44954Z" fill="#35578B"/>
<path d="M8.81577 12.4701C8.81577 12.7738 8.56328 13.0193 8.25221 13.0193H7.40862C7.09755 13.0193 6.84507 12.7738 6.84507 12.4701V11.6465C6.84507 11.3435 7.09755 11.0976 7.40862 11.0976H8.25239C8.56346 11.0976 8.81594 11.3435 8.81594 11.6465L8.81577 12.4701Z" fill="#35578B"/>
<path d="M12.4229 13.0193C12.734 13.0193 12.985 12.7738 12.985 12.4701V11.6465C12.985 11.3435 12.734 11.0976 12.4229 11.0976H11.5777C11.2666 11.0976 11.0156 11.3435 11.0156 11.6465V12.4701C11.0156 12.7738 11.2666 13.0193 11.5777 13.0193H12.4229Z" fill="#35578B"/>
<path d="M17.1554 12.4701C17.1554 12.7738 16.9029 13.0193 16.5918 13.0193H15.7481C15.437 13.0193 15.1845 12.7738 15.1845 12.4701V11.6465C15.1845 11.3435 15.437 11.0976 15.7481 11.0976H16.5918C16.9029 11.0976 17.1554 11.3435 17.1554 11.6465V12.4701Z" fill="#35578B"/>
<path d="M8.25221 16.8633C8.56328 16.8633 8.81577 16.6178 8.81577 16.314L8.81594 15.4905C8.81594 15.1874 8.56346 14.9416 8.25239 14.9416H7.40862C7.09755 14.9416 6.84507 15.1874 6.84507 15.4905V16.314C6.84507 16.6178 7.09755 16.8633 7.40862 16.8633H8.25221Z" fill="#35578B"/>
<path d="M12.985 16.314C12.985 16.6178 12.734 16.8633 12.4229 16.8633H11.5777C11.2666 16.8633 11.0156 16.6178 11.0156 16.314V15.4905C11.0156 15.1874 11.2666 14.9416 11.5777 14.9416H12.4229C12.734 14.9416 12.985 15.1874 12.985 15.4905V16.314Z" fill="#35578B"/>
<path d="M16.5918 16.8633C16.9029 16.8633 17.1554 16.6178 17.1554 16.314V15.4905C17.1554 15.1874 16.9029 14.9416 16.5918 14.9416H15.7481C15.437 14.9416 15.1845 15.1874 15.1845 15.4905V16.314C15.1845 16.6178 15.437 16.8633 15.7481 16.8633H16.5918Z" fill="#35578B"/>
<path fill-rule="evenodd" clip-rule="evenodd" d="M17.5332 5.81046V5.07141C18.911 5.16214 20.0003 6.11245 20 7.27108V18.8085C20 19.5657 19.5518 20 18.7692 20H5.23082C4.44833 20 4 19.5657 4 18.8085V7.27108C4 6.11245 5.08788 5.16197 6.46572 5.07141V5.81046C6.46572 6.54483 7.07831 7.14103 7.82972 7.14103C8.58238 7.14103 9.19336 6.54466 9.19336 5.81046V5.06205H10.6364V5.81046C10.6364 6.54483 11.2479 7.14103 12.0003 7.14103C12.7516 7.14103 13.364 6.54466 13.364 5.81046V5.06205H14.807V5.81046C14.807 6.54483 15.4181 7.14103 16.1696 7.14103C16.9222 7.14103 17.5332 6.54466 17.5332 5.81046ZM18.9475 18.9408C18.9509 18.9182 18.9572 18.8758 18.9572 18.8086V8.9781H5.04369V18.8086C5.04369 18.8772 5.05025 18.92 5.05368 18.9422C5.05528 18.9527 5.05619 18.9586 5.05539 18.9605C5.0703 18.9666 5.1195 18.9825 5.23117 18.9825H18.7697C18.8814 18.9825 18.9309 18.9666 18.9458 18.9605C18.9449 18.9585 18.9458 18.9521 18.9475 18.9408Z" fill="#35578B"/>
</svg>
