<svg width="48" height="48" viewBox="0 0 48 48" fill="none" xmlns="http://www.w3.org/2000/svg">
<path fill-rule="evenodd" clip-rule="evenodd" d="M35.314 37.8701C36.095 38.6511 37.3614 38.6511 38.1424 37.8701C38.9235 37.089 38.9235 35.8227 38.1424 35.0416L26.8284 23.7276L38.1415 12.4145C38.9226 11.6335 38.9226 10.3671 38.1415 9.58609C37.3605 8.80504 36.0942 8.80504 35.3131 9.58609L24 20.8992L12.6866 9.58579C11.9055 8.80474 10.6392 8.80474 9.85816 9.58579C9.07711 10.3668 9.07711 11.6332 9.85816 12.4142L21.1716 23.7276L9.85727 35.0419C9.07622 35.823 9.07622 37.0893 9.85727 37.8704C10.6383 38.6514 11.9046 38.6514 12.6857 37.8704L24 26.5561L35.314 37.8701Z" fill="white"/>
</svg>
