<svg width="32" height="32" viewBox="0 0 32 32" fill="none" xmlns="http://www.w3.org/2000/svg">
<path d="M21.5058 4H10.4942C8.77248 4.0021 7.12188 4.68699 5.90443 5.90443C4.68699 7.12188 4.0021 8.77248 4 10.4942L4 21.5058C4.0021 23.2275 4.68699 24.8781 5.90443 26.0956C7.12188 27.313 8.77248 27.9979 10.4942 28H21.5058C23.2275 27.9979 24.8781 27.313 26.0956 26.0956C27.313 24.8781 27.9979 23.2275 28 21.5058V10.4942C27.9979 8.77248 27.313 7.12188 26.0956 5.90443C24.8781 4.68699 23.2275 4.0021 21.5058 4V4ZM26.5948 21.5058C26.5948 22.8555 26.0586 24.1499 25.1042 25.1042C24.1499 26.0586 22.8555 26.5948 21.5058 26.5948H18.211V19.3384H21.0533C21.1777 19.3394 21.2982 19.2947 21.3918 19.2127C21.4855 19.1308 21.5458 19.0173 21.5614 18.8938L21.871 16.2421C21.8801 16.1713 21.8739 16.0994 21.8528 16.0312C21.8318 15.963 21.7964 15.9 21.749 15.8467C21.7016 15.7933 21.6434 15.7506 21.5781 15.7216C21.5129 15.6926 21.4422 15.6779 21.3708 15.6785H18.1952V13.4555C18.1952 12.4552 18.473 11.7645 19.918 11.7645H21.2517C21.3174 11.7645 21.3825 11.7515 21.4431 11.7264C21.5038 11.7013 21.559 11.6644 21.6054 11.618C21.6519 11.5715 21.6887 11.5164 21.7138 11.4557C21.739 11.395 21.7519 11.33 21.7519 11.2643V9.02547C21.7519 8.89208 21.6995 8.76403 21.6059 8.66897C21.5123 8.5739 21.3851 8.51945 21.2517 8.51737H19.0844C16.4247 8.51737 14.6067 10.1052 14.6067 13.1141V15.6785H12.479C12.3456 15.6805 12.2184 15.735 12.1248 15.8301C12.0313 15.9251 11.9788 16.0532 11.9788 16.1866V18.8382C11.9809 18.9716 12.0354 19.0988 12.1304 19.1924C12.2255 19.286 12.3535 19.3384 12.4869 19.3384H14.6226V26.5948H10.4942C9.14517 26.5927 7.85199 26.0558 6.89807 25.1019C5.94416 24.148 5.40733 22.8548 5.40523 21.5058V10.4942C5.40733 9.14517 5.94416 7.85199 6.89807 6.89807C7.85199 5.94416 9.14517 5.40733 10.4942 5.40523H21.5058C22.8548 5.40733 24.148 5.94416 25.1019 6.89807C26.0558 7.85199 26.5927 9.14517 26.5948 10.4942V21.5058Z" fill="#C3D6F3"/>
</svg>
