<svg width="32" height="32" viewBox="0 0 32 32" fill="none" xmlns="http://www.w3.org/2000/svg">
<g clip-path="url(#clip0_525_1365)">
<path d="M11.0973 10.842C10.5615 10.842 10.1272 10.4076 10.1272 9.87185C10.1272 9.33607 10.5615 8.90174 11.0973 8.90174H20.9008C21.4365 8.90174 21.8709 9.33607 21.8709 9.87185C21.8709 10.4076 21.4365 10.842 20.9008 10.842H11.0973Z" fill="#C3D6F3"/>
<path d="M11.0973 14.5183C10.5615 14.5183 10.1272 14.0839 10.1272 13.5482C10.1272 13.0124 10.5615 12.578 11.0973 12.578H20.9008C21.4365 12.578 21.8709 13.0124 21.8709 13.5482C21.8709 14.0839 21.4365 14.5183 20.9008 14.5183H11.0973Z" fill="#C3D6F3"/>
<path d="M11.0973 18.1946C10.5615 18.1946 10.1272 17.7602 10.1272 17.2245C10.1272 16.6887 10.5615 16.2544 11.0973 16.2544H15.999C16.5348 16.2544 16.9691 16.6887 16.9691 17.2245C16.9691 17.7602 16.5348 18.1946 15.999 18.1946H11.0973Z" fill="#C3D6F3"/>
<path fill-rule="evenodd" clip-rule="evenodd" d="M24.5771 23.0963H10.2737L5.65608 27.7139C5.04495 28.3251 4 27.8922 4 27.0279V7.42098C4 5.53163 5.53163 4 7.42098 4H24.5771C26.4664 4 27.9981 5.53163 27.9981 7.42098V19.6753C27.9981 21.5647 26.4664 23.0963 24.5771 23.0963ZM5.94022 7.42098V24.6859L9.18588 21.4402C9.36781 21.2583 9.61456 21.1561 9.87185 21.1561H24.5771C25.3949 21.1561 26.0578 20.4931 26.0578 19.6753V7.42098C26.0578 6.60318 25.3949 5.94022 24.5771 5.94022H7.42098C6.60318 5.94022 5.94022 6.60318 5.94022 7.42098Z" fill="#C3D6F3"/>
</g>
<defs>
<clipPath id="clip0_525_1365">
<rect width="32" height="32" fill="white"/>
</clipPath>
</defs>
</svg>
