<svg width="32" height="32" viewBox="0 0 32 32" fill="none" xmlns="http://www.w3.org/2000/svg">
<path fill-rule="evenodd" clip-rule="evenodd" d="M16.004 9.43829C14.7051 9.43672 13.435 9.82046 12.3542 10.5409C11.2734 11.2614 10.4307 12.2863 9.9325 13.4859C9.43435 14.6855 9.30319 16.0058 9.55563 17.28C9.80807 18.5541 10.4328 19.7247 11.3507 20.6438C12.2686 21.5628 13.4385 22.1889 14.7123 22.4429C15.9861 22.6969 17.3067 22.5673 18.5068 22.0706C19.707 21.5739 20.7329 20.7324 21.4547 19.6525C22.1765 18.5726 22.5618 17.3029 22.5618 16.004C22.5597 14.2647 21.8684 12.5971 20.6392 11.3664C19.4101 10.1358 17.7433 9.44249 16.004 9.43829ZM16.004 21.1565C14.9827 21.158 13.9839 20.8565 13.1341 20.2901C12.2842 19.7236 11.6216 18.9178 11.23 17.9745C10.8384 17.0312 10.7356 15.993 10.9344 14.9912C11.1333 13.9895 11.625 13.0692 12.3471 12.347C13.0693 11.6249 13.9895 11.1332 14.9913 10.9344C15.9931 10.7355 17.0313 10.8384 17.9746 11.2299C18.9179 11.6215 19.7237 12.2841 20.2902 13.134C20.8566 13.9838 21.1581 14.9826 21.1565 16.004C21.1544 17.3698 20.6109 18.6792 19.6451 19.645C18.6793 20.6108 17.3699 21.1544 16.004 21.1565Z" fill="#C3D6F3"/>
<path fill-rule="evenodd" clip-rule="evenodd" d="M21.6335 7.42035C21.9565 7.20951 22.3349 7.09946 22.7206 7.10418C23.2323 7.11045 23.7209 7.31814 24.0806 7.68224C24.4402 8.04633 24.6419 8.5375 24.6418 9.04927C24.6418 9.43498 24.5271 9.81197 24.3123 10.1323C24.0975 10.4527 23.7923 10.702 23.4355 10.8485C23.0787 10.995 22.6864 11.0321 22.3084 10.9551C21.9305 10.8781 21.584 10.6904 21.3129 10.416C21.0419 10.1416 20.8585 9.79279 20.7862 9.41393C20.7138 9.03506 20.7558 8.64324 20.9066 8.28826C21.0575 7.93329 21.3105 7.63118 21.6335 7.42035ZM22.425 9.49155C22.5125 9.54999 22.6154 9.58119 22.7206 9.58119V9.55737C22.8576 9.55751 22.9894 9.50475 23.0885 9.41009C23.1876 9.31543 23.2463 9.18617 23.2525 9.04927C23.2525 8.94406 23.2213 8.84122 23.1628 8.75375C23.1044 8.66627 23.0213 8.5981 22.9241 8.55784C22.8269 8.51758 22.72 8.50704 22.6168 8.52757C22.5136 8.54809 22.4188 8.59875 22.3444 8.67314C22.27 8.74753 22.2194 8.84231 22.1989 8.9455C22.1783 9.04868 22.1889 9.15563 22.2291 9.25283C22.2694 9.35002 22.3376 9.4331 22.425 9.49155Z" fill="#C3D6F3"/>
<path fill-rule="evenodd" clip-rule="evenodd" d="M21.5058 4H10.4942C8.77248 4.0021 7.12188 4.68699 5.90443 5.90443C4.68699 7.12188 4.0021 8.77248 4 10.4942V21.5058C4.0021 23.2275 4.68699 24.8781 5.90443 26.0956C7.12188 27.313 8.77248 27.9979 10.4942 28H21.5058C23.2275 27.9979 24.8781 27.313 26.0956 26.0956C27.313 24.8781 27.9979 23.2275 28 21.5058V10.4942C27.9979 8.77248 27.313 7.12188 26.0956 5.90443C24.8781 4.68699 23.2275 4.0021 21.5058 4ZM26.5948 21.5058C26.5948 22.8555 26.0586 24.1499 25.1042 25.1042C24.1499 26.0586 22.8555 26.5948 21.5058 26.5948H10.4942C9.14517 26.5927 7.85199 26.0558 6.89807 25.1019C5.94416 24.148 5.40733 22.8548 5.40523 21.5058V10.4942C5.40733 9.14517 5.94416 7.85199 6.89807 6.89807C7.85199 5.94416 9.14517 5.40733 10.4942 5.40523H21.5058C22.8548 5.40733 24.148 5.94416 25.1019 6.89807C26.0558 7.85199 26.5927 9.14517 26.5948 10.4942V21.5058Z" fill="#C3D6F3"/>
</svg>
