<svg width="32" height="32" viewBox="0 0 32 32" fill="none" xmlns="http://www.w3.org/2000/svg">
<g clip-path="url(#clip0_525_1369)">
<path d="M16 4C13.6266 4 11.3066 4.70379 9.33316 6.02236C7.35977 7.34094 5.8217 9.21508 4.91345 11.4078C4.0052 13.6005 3.76756 16.0133 4.23058 18.3411C4.6936 20.6689 5.83649 22.807 7.51472 24.4853C9.19295 26.1635 11.3311 27.3064 13.6589 27.7694C15.9867 28.2324 18.3995 27.9948 20.5922 27.0865C22.7849 26.1783 24.6591 24.6402 25.9776 22.6668C27.2962 20.6934 28 18.3734 28 16C28 12.8174 26.7357 9.76515 24.4853 7.51472C22.2348 5.26428 19.1826 4 16 4ZM18.696 26.0427C19.5867 24.624 20.2773 22.52 20.6427 20.0373H25.584C24.9664 21.4951 24.0253 22.7933 22.832 23.8337C21.6386 24.8741 20.2243 25.6295 18.696 26.0427ZM6.42934 20.0373H11.3573C11.7227 22.52 12.424 24.624 13.304 26.0427C11.7757 25.6295 10.3614 24.8741 9.16804 23.8337C7.97471 22.7933 7.03363 21.4951 6.416 20.0373H6.42934ZM13.3173 5.95733C12.5173 7.23733 11.872 9.07466 11.488 11.2453H6.75467C7.41966 9.95771 8.34537 8.82259 9.47292 7.91219C10.6005 7.0018 11.9052 6.33606 13.304 5.95733H13.3173ZM25.2453 11.2453H20.5333C20.1493 9.07466 19.5067 7.24533 18.704 5.95733C20.1014 6.33705 21.4045 7.00324 22.5306 7.91359C23.6567 8.82394 24.5812 9.95854 25.2453 11.2453ZM16 26.4C15.5333 26.4 14.7067 25.6 13.9947 23.8773C13.5107 22.6404 13.1707 21.352 12.9813 20.0373H19.0187C18.8293 21.352 18.4893 22.6404 18.0053 23.8773C17.2933 25.6 16.4667 26.4 16 26.4ZM16 5.6C16.4667 5.6 17.2933 6.4 18.0053 8.12267C18.4049 9.13149 18.7032 10.1775 18.896 11.2453H13.104C13.2968 10.1775 13.5951 9.13149 13.9947 8.12267C14.7067 6.4 15.5333 5.6 16 5.6ZM12.672 16C12.6713 14.9457 12.7336 13.8922 12.8587 12.8453H19.1413C19.2664 13.8922 19.3287 14.9457 19.328 16C19.328 16.824 19.288 17.6427 19.216 18.4373H12.784C12.712 17.6427 12.672 16.824 12.672 16ZM11.1733 18.4373H5.89067C5.44249 16.5876 5.51168 14.6503 6.09067 12.8373H11.2453C11.129 13.8875 11.0712 14.9434 11.072 16C11.072 16.8347 11.1067 17.6507 11.1733 18.4373ZM20.7547 12.8373H25.9093C26.4883 14.6503 26.5575 16.5876 26.1093 18.4373H20.8267C20.8933 17.6373 20.928 16.8373 20.928 16C20.9285 14.946 20.8707 13.8929 20.7547 12.8453V12.8373Z" fill="white"/>
</g>
<defs>
<clipPath id="clip0_525_1369">
<rect width="32" height="32" fill="white"/>
</clipPath>
</defs>
</svg>
