<svg width="32" height="32" viewBox="0 0 32 32" fill="none" xmlns="http://www.w3.org/2000/svg">
<path d="M27.6639 25.9707L21.2033 19.5101C22.7037 17.5789 23.4117 15.1485 23.183 12.7136C22.9543 10.2787 21.8061 8.0226 19.9723 6.40458C18.1385 4.78657 15.7569 3.92835 13.3125 4.00469C10.8681 4.08102 8.54474 5.08617 6.81545 6.81545C5.08617 8.54474 4.08102 10.8681 4.00469 13.3125C3.92835 15.7569 4.78657 18.1385 6.40458 19.9723C8.0226 21.8061 10.2787 22.9543 12.7136 23.183C15.1485 23.4117 17.5789 22.7037 19.5101 21.2033L25.9707 27.6639C26.1965 27.882 26.499 28.0027 26.813 28C27.1269 27.9972 27.4273 27.8713 27.6493 27.6493C27.8713 27.4273 27.9972 27.1269 28 26.813C28.0027 26.499 27.882 26.1965 27.6639 25.9707ZM6.46111 13.6456C6.46111 12.2247 6.88248 10.8356 7.67193 9.65414C8.46137 8.47265 9.58344 7.55178 10.8962 7.008C12.209 6.46422 13.6536 6.32195 15.0473 6.59916C16.4409 6.87638 17.7211 7.56064 18.7259 8.56542C19.7307 9.57019 20.4149 10.8504 20.6921 12.244C20.9693 13.6377 20.8271 15.0822 20.2833 16.3951C19.7395 17.7079 18.8187 18.8299 17.6372 19.6194C16.4557 20.4088 15.0666 20.8302 13.6456 20.8302C11.7408 20.8281 9.91463 20.0705 8.56773 18.7236C7.22082 17.3767 6.46321 15.5505 6.46111 13.6456Z" fill="#C3D6F3"/>
</svg>
